<svg width="36" height="36" viewBox="0 0 36 36" fill="none" xmlns="http://www.w3.org/2000/svg">
<rect width="36" height="36" rx="6" fill="#EEF7FF"/>
<path d="M27.8138 23.7082C27.1099 25.2381 24.7821 24.8708 24.775 22.8816L24.7732 18.928C24.7717 18.3673 24.7113 17.9057 24.0313 17.7563C23.721 17.688 23.8015 17.7135 23.8014 18.0233L23.807 25.9912C23.8454 26.0179 23.9235 26.013 23.9699 26.0181C24.5553 26.0823 24.9891 26.465 25.1437 27.0372C25.1952 27.2282 25.1625 27.4212 25.1958 27.6125L25.7506 27.6173C26.2421 27.6774 26.2135 28.3879 25.6934 28.3926L6.77556 28.3805C6.59657 28.3804 6.3883 28.3985 6.21263 28.3669L6.19341 28.3631C5.92114 28.311 5.75972 27.9536 5.9685 27.7462C6.12928 27.5866 6.34635 27.611 6.55218 27.6121L6.92827 27.6102C6.9362 26.7499 7.26479 26.0742 8.23932 25.9991C8.2434 25.9987 8.24911 26.0014 8.25155 25.9981C8.26267 25.9832 8.25299 16.3681 8.25271 15.2707L8.25259 13.1773C8.25273 12.5546 8.22085 11.9343 8.34302 11.3203C8.70641 9.49417 10.2056 8.054 12.1036 8.04167L19.276 8.04113C19.7233 8.04097 20.1755 8.01564 20.6153 8.11094C22.3081 8.47782 23.6514 10.1039 23.7661 11.8259L23.8016 16.9449C24.7306 17.0003 25.4613 17.5346 25.5374 18.528C25.5492 18.6828 25.5422 18.8416 25.5423 18.9968L25.5434 22.3471C25.5437 22.6941 25.4892 23.1656 25.6689 23.4742C26.0196 24.076 27.0075 23.9735 27.1525 23.2815L27.1564 23.2622C27.2044 23.0465 27.1777 22.7914 27.1778 22.5692L27.1788 16.7144C27.1258 16.6888 27.0703 16.6847 27.0151 16.6671C26.4332 16.482 26.0271 15.9023 25.964 15.3057C25.9372 15.0521 25.9579 14.7758 25.9579 14.5197L25.9584 13.0904C25.9584 12.9962 25.9862 12.8932 25.8998 12.8308C25.5182 12.5551 25.6112 12.0822 25.9629 12.0443C26.2091 12.0178 26.4262 12.2394 26.6009 12.3849L26.9913 12.7137L27.3443 11.8418C27.6845 11.0839 27.8436 10.9447 28.416 10.4192L29.2027 9.62744C29.4125 9.40917 29.8308 8.98653 30.0724 9.46863C30.2344 9.79167 29.9615 9.99038 29.7604 10.192L29.1108 10.8302C28.8651 11.0562 28.583 11.2632 28.3849 11.5343C28.0876 11.9413 27.7994 12.6696 27.63 13.1421C28.4204 13.8927 28.5311 14.2495 28.6539 15.3748C28.6772 15.5883 28.7105 15.8368 28.6815 16.0495L28.6784 16.0703C28.6193 16.5002 28.2802 16.6051 27.947 16.713L27.9474 23.1604C27.9452 23.2494 27.9453 23.3592 27.9132 23.4434L27.8138 23.7082ZM12.3269 8.80062C10.2253 8.80833 9.01786 10.3669 9.01905 12.3909L9.02928 26.0033L19.7174 26.002L23.0339 26.0015L23.0296 13.5222C23.0292 12.8941 23.0688 12.2466 22.9547 11.6269C22.6941 10.2123 21.642 9.06566 20.206 8.81748C19.9584 8.77469 19.6711 8.80033 19.4187 8.80029L12.3269 8.80062ZM26.7198 13.3888L26.7097 14.5599C26.7099 14.9731 26.657 15.4182 26.9748 15.7412C27.1827 15.9525 27.5807 16.0371 27.864 15.937L27.9087 15.915C27.9267 15.8405 27.9167 15.7551 27.9141 15.6786C27.8863 14.8563 27.7741 14.3689 27.1793 13.7766C27.0371 13.635 26.8913 13.495 26.7198 13.3888ZM12.8298 26.7693L8.64776 26.7691C8.48169 26.7692 8.30326 26.757 8.13842 26.7765C7.79945 26.8164 7.66865 27.2876 7.68256 27.5711L19.2505 27.6137L24.3858 27.6111C24.4084 27.1564 24.319 26.7989 23.8102 26.7743L12.8298 26.7693Z" fill="#123984"/>
<path d="M16.3307 15.1695L11.881 15.1697C11.7072 15.1696 11.5182 15.1843 11.3466 15.1598C10.7657 15.077 10.3615 14.6235 10.2563 14.0581C10.2092 13.8051 10.2309 13.5255 10.2305 13.2683L10.23 12.452C10.2302 12.2498 10.2229 12.0431 10.2555 11.8428C10.4001 10.956 11.094 10.216 11.9735 10.03C12.1896 9.98438 12.4107 9.98863 12.6301 9.98837L15.6924 9.98785L19.0657 9.98824C20.0782 9.98883 20.8199 10.064 21.4326 11.0341C21.8464 11.6894 21.7608 12.4514 21.7602 13.1905C21.76 13.4861 21.7934 13.8377 21.7265 14.1263C21.603 14.6593 21.1591 15.0637 20.6203 15.1596C20.482 15.1842 20.3207 15.1703 20.1801 15.1702L16.3307 15.1695ZM13.4384 10.7514L12.8095 10.7524C12.6372 10.7528 12.4591 10.7445 12.2879 10.7663C11.6689 10.8455 11.0931 11.3477 11.0133 11.9824C10.9873 12.1899 11.0049 12.4175 11.0049 12.6268L11.0064 13.5706C11.0119 14.5161 11.4154 14.405 12.1842 14.4048L18.5777 14.4041L19.821 14.4037C20.1968 14.4033 20.6651 14.4835 20.9089 14.1196L20.9318 14.0835C21.0168 13.9557 20.9934 13.8047 20.994 13.6572L20.9962 12.4583C20.9961 12.2973 21.004 12.133 20.9775 11.9738C20.8786 11.3818 20.3871 10.8479 19.7796 10.7665C19.5447 10.7351 19.2879 10.7518 19.0506 10.7516L13.4384 10.7514Z" fill="#123984"/>
<path d="M16.8094 24.5162C15.3597 24.9296 14.037 24.0726 13.252 22.8895C11.5261 20.2881 15.2195 19.1523 14.803 16.7393C14.7433 16.3937 14.5824 16.1242 15.0599 15.9716C15.3788 15.9391 15.792 16.2811 16.0513 16.4389C17.4075 17.2641 18.5517 18.3002 19.0661 19.8608C19.6023 21.4875 19.2751 22.8687 17.922 23.9038C17.5775 24.1672 17.2227 24.3797 16.8094 24.5162ZM15.5914 17.0687C15.5722 17.7217 15.4351 18.287 15.1141 18.8604C14.7069 19.5878 13.6582 20.5671 13.5741 21.3666C13.5061 22.0135 13.8739 22.4619 14.2078 22.9453C14.2109 21.9066 14.469 21.7751 15.0862 21.0387C15.3232 20.756 15.516 20.3846 15.6377 20.0371C15.7697 19.6599 15.6855 19.2238 16.2096 19.1672L16.227 19.1705C16.4692 19.2197 16.5993 19.445 16.7437 19.6237C17.3995 20.4356 18.0563 21.334 18.136 22.4107C18.1406 22.473 18.1231 22.6025 18.1444 22.6545C18.5994 21.7472 18.6786 21.1346 18.3425 20.1137C17.8366 18.5769 16.8521 17.8779 15.5914 17.0687ZM16.32 20.3482C16.1941 20.7633 15.9764 21.1523 15.7165 21.498C15.5364 21.7376 15.2898 21.9358 15.1303 22.1865C14.6489 22.9432 15.0596 23.8426 16.0243 23.8696C16.8773 23.8579 17.3815 23.3643 17.3671 22.5032C17.3515 21.5669 16.7902 21.0345 16.32 20.3482Z" fill="#123984"/>
</svg>
