<svg width="54" height="54" viewBox="0 0 54 54" fill="none" xmlns="http://www.w3.org/2000/svg">
<rect x="0.775879" y="0.58284" width="53.1143" height="53.1143" rx="9.95894" fill="#B9E0FF"/>
<g filter="url(#filter0_f_2279_3081)">
<rect x="8.52148" y="8.3287" width="15.4917" height="15.4917" rx="7.74584" fill="#52B2FF"/>
</g>
<path d="M25.4223 40.6067V36.2091H15.1611V33.2773H38.6153V36.2091H28.3541V40.6067H25.4223ZM22.4906 25.2149C22.9059 25.2149 23.2543 25.0742 23.5357 24.7927C23.8172 24.5113 23.9574 24.1634 23.9564 23.749C23.9555 23.3347 23.8147 22.9868 23.5343 22.7053C23.2538 22.4239 22.9059 22.2831 22.4906 22.2831C22.0752 22.2831 21.7273 22.4239 21.4468 22.7053C21.1664 22.9868 21.0257 23.3347 21.0247 23.749C21.0237 24.1634 21.1644 24.5118 21.4468 24.7942C21.7293 25.0766 22.0772 25.2169 22.4906 25.2149ZM31.2859 25.2149C31.7012 25.2149 32.0496 25.0742 32.331 24.7927C32.6125 24.5113 32.7527 24.1634 32.7518 23.749C32.7508 23.3347 32.6101 22.9868 32.3296 22.7053C32.0491 22.4239 31.7012 22.2831 31.2859 22.2831C30.8705 22.2831 30.5226 22.4239 30.2422 22.7053C29.9617 22.9868 29.821 23.3347 29.82 23.749C29.819 24.1634 29.9597 24.5118 30.2422 24.7942C30.5246 25.0766 30.8725 25.2169 31.2859 25.2149ZM16.627 20.9638L19.0457 13.9276C19.1679 13.5856 19.3697 13.3046 19.6511 13.0847C19.9326 12.8648 20.2438 12.7549 20.5849 12.7549H33.1915C33.5336 12.7549 33.8453 12.8648 34.1268 13.0847C34.4082 13.3046 34.6095 13.5856 34.7307 13.9276L37.1494 20.9638V30.6387C37.1494 30.9807 37.0395 31.2617 36.8196 31.4816C36.5997 31.7015 36.3187 31.8114 35.9767 31.8114H35.3904C35.0483 31.8114 34.7674 31.7015 34.5475 31.4816C34.3276 31.2617 34.2176 30.9807 34.2176 30.6387V28.8796H19.5588V30.6387C19.5588 30.9807 19.4488 31.2617 19.229 31.4816C19.0091 31.7015 18.7281 31.8114 18.3861 31.8114H17.7997C17.4577 31.8114 17.1767 31.7015 16.9568 31.4816C16.737 31.2617 16.627 30.9807 16.627 30.6387V20.9638ZM20.5116 18.6184H33.2648L32.2387 15.6867H21.5377L20.5116 18.6184ZM19.5588 25.9479H34.2176V21.5502H19.5588V25.9479Z" fill="#123984" stroke="#B9E0FF" stroke-width="1.10655"/>
<defs>
<filter id="filter0_f_2279_3081" x="2.98874" y="2.79596" width="26.5572" height="26.5572" filterUnits="userSpaceOnUse" color-interpolation-filters="sRGB">
<feFlood flood-opacity="0" result="BackgroundImageFix"/>
<feBlend mode="normal" in="SourceGraphic" in2="BackgroundImageFix" result="shape"/>
<feGaussianBlur stdDeviation="2.76637" result="effect1_foregroundBlur_2279_3081"/>
</filter>
</defs>
</svg>
