<svg width="54" height="54" viewBox="0 0 54 54" fill="none" xmlns="http://www.w3.org/2000/svg">
<circle cx="26.6611" cy="26.6181" r="26.6182" fill="white"/>
<g clip-path="url(#clip0_2279_3021)">
<path d="M17.968 17.3757C16.7332 17.3757 15.5927 17.9931 14.906 19.0217L12.3357 22.8638C12.0332 23.3168 11.8723 23.8496 11.8736 24.3944V30.5175C11.8718 30.9277 12.0074 31.3268 12.2586 31.6512C12.5098 31.9756 12.8623 32.2067 13.2599 32.3077L15.6574 32.9149C15.8298 33.7456 16.2827 34.4917 16.94 35.028C17.5973 35.5643 18.4191 35.8583 19.2675 35.8605C20.9792 35.8605 22.4081 34.6765 22.8203 33.0878H31.4268C31.839 34.6765 33.2679 35.8605 34.9796 35.8605C36.6913 35.8605 38.1202 34.6765 38.5324 33.0878H39.6008C40.6119 33.0878 41.4493 32.2504 41.4493 31.2393V27.8603C41.4484 27.0364 41.1722 26.2365 40.6647 25.5877C40.1571 24.9388 39.4473 24.4781 38.6479 24.2788L33.6505 23.008L30.0404 18.7047C29.6951 18.2892 29.2625 17.9547 28.7735 17.725C28.2844 17.4953 27.7507 17.3761 27.2104 17.3757H17.968ZM17.968 19.2242H22.0402V22.9211H14.5307L16.4375 20.0615V20.0329C16.6049 19.7814 16.8325 19.5756 17.0996 19.4344C17.3668 19.2932 17.6659 19.2209 17.968 19.2242ZM23.8887 19.2242H27.2104C27.7585 19.2242 28.2751 19.4663 28.6254 19.8887L31.1671 22.9211H23.8887V19.2242ZM13.722 24.7696H33.0156L38.2144 26.0691C38.6134 26.1681 38.9672 26.3988 39.2188 26.7238C39.4704 27.0488 39.605 27.4493 39.6008 27.8603V31.2393H38.5324C38.1202 29.6505 36.6913 28.4666 34.9796 28.4666C33.2679 28.4666 31.839 29.6505 31.4268 31.2393H22.8203C22.4081 29.6505 20.9792 28.4666 19.2675 28.4666C17.6288 28.4666 16.2526 29.5498 15.7729 31.0369L13.722 30.5184V24.7696ZM19.2675 30.3151C20.2999 30.3151 21.116 31.1312 21.116 32.1635C21.116 33.1959 20.2999 34.012 19.2675 34.012C18.2351 34.012 17.419 33.1959 17.419 32.1635C17.419 31.1312 18.2351 30.3151 19.2675 30.3151ZM34.9796 30.3151C36.012 30.3151 36.8281 31.1312 36.8281 32.1635C36.8281 33.1959 36.012 34.012 34.9796 34.012C33.9472 34.012 33.1311 33.1959 33.1311 32.1635C33.1311 31.1312 33.9472 30.3151 34.9796 30.3151Z" fill="#123984" stroke="white" stroke-width="0.443636"/>
</g>
<defs>
<clipPath id="clip0_2279_3021">
<rect width="29.5757" height="29.5757" fill="white" transform="translate(11.8735 11.8302)"/>
</clipPath>
</defs>
</svg>
