<svg width="54" height="54" viewBox="0 0 54 54" fill="none" xmlns="http://www.w3.org/2000/svg">
<rect x="0.171875" y="0.582893" width="53.1143" height="53.1143" rx="9.95894" fill="#B9E0FF"/>
<g filter="url(#filter0_f_2279_3070)">
<rect x="7.91748" y="8.3287" width="15.4917" height="15.4917" rx="7.74584" fill="#52B2FF"/>
</g>
<g clip-path="url(#clip0_2279_3070)">
<path d="M31.4551 27.14C31.4499 26.4009 31.2694 25.6735 30.9284 25.0177L36.9598 26.0029C37.0011 26.0099 37.0429 26.0134 37.0848 26.0133C37.1983 26.0133 37.3105 25.9884 37.4134 25.9402C37.5162 25.8921 37.6072 25.822 37.6799 25.7348C37.7527 25.6476 37.8053 25.5454 37.8342 25.4356C37.863 25.3258 37.8674 25.211 37.847 25.0993C37.3695 22.4989 35.9956 20.1483 33.9643 18.456C31.9331 16.7638 29.3729 15.8371 26.7291 15.8371C24.0853 15.8371 21.5252 16.7638 19.4939 18.456C17.4626 20.1483 16.0888 22.4989 15.6113 25.0993C15.5889 25.2214 15.5963 25.3471 15.6327 25.4657C15.6691 25.5844 15.7335 25.6926 15.8205 25.7812C15.9074 25.8698 16.0144 25.9361 16.1324 25.9747C16.2504 26.0133 16.3759 26.023 16.4984 26.0029L22.5298 25.0177C22.1889 25.6735 22.0083 26.4009 22.0031 27.14C22.0031 28.3934 22.501 29.5955 23.3873 30.4818C24.2736 31.3681 25.4757 31.866 26.7291 31.866C27.9825 31.866 29.1846 31.3681 30.0709 30.4818C30.9572 29.5955 31.4551 28.3934 31.4551 27.14ZM26.7291 17.3875C28.8182 17.3858 30.8525 18.0554 32.5321 19.2975C34.2118 20.5396 35.4479 22.2886 36.0582 24.2865L29.2945 23.1814C28.5326 22.6808 27.6408 22.4141 26.7291 22.4141C25.8174 22.4141 24.9257 22.6808 24.1637 23.1814L17.399 24.2865C18.0095 22.2885 19.2458 20.5395 20.9256 19.2974C22.6055 18.0553 24.6399 17.3857 26.7291 17.3875ZM26.7291 30.3158C26.1008 30.3158 25.4865 30.1295 24.9641 29.7804C24.4416 29.4312 24.0344 28.935 23.794 28.3545C23.5536 27.7739 23.4907 27.1351 23.6134 26.5188C23.7361 25.9026 24.0387 25.3365 24.4831 24.8923C24.9275 24.448 25.4937 24.1455 26.11 24.0231C26.7263 23.9006 27.3651 23.9637 27.9456 24.2043C28.526 24.4449 29.0221 24.8522 29.3711 25.3748C29.72 25.8974 29.9061 26.5117 29.9059 27.14C29.9049 27.9821 29.5698 28.7894 28.9742 29.3848C28.3786 29.9802 27.5712 30.315 26.7291 30.3158Z" fill="#123984"/>
<path d="M26.7289 11.9067C24.5127 11.8937 22.3207 12.3672 20.3074 13.2939C18.2942 14.2205 16.5089 15.5778 15.0775 17.2698C13.6461 18.9618 12.6035 20.9473 12.0233 23.0863C11.4431 25.2252 11.3394 27.4654 11.7196 29.6488C11.7185 29.6931 11.7217 29.7374 11.7289 29.781C11.7289 29.7924 11.7413 29.8017 11.7454 29.813C12.2844 32.8169 13.7115 35.5903 15.8424 37.775C17.9734 39.9596 20.7103 41.4554 23.6998 42.069C23.759 42.0855 23.8201 42.0945 23.8816 42.0959C25.7244 42.4589 27.6197 42.4649 29.4648 42.1134H29.4741C29.5492 42.1134 29.624 42.1026 29.6961 42.0814L29.7075 42.0752C32.7049 41.4703 35.4515 39.9792 37.5916 37.7951C39.7317 35.611 41.1666 32.8345 41.7104 29.8254C41.7104 29.813 41.7238 29.8048 41.7269 29.7924C41.7359 29.743 41.7397 29.6928 41.7383 29.6426C42.1176 27.4597 42.0133 25.2201 41.4327 23.0818C40.8521 20.9435 39.8093 18.9587 38.378 17.2674C36.9467 15.5761 35.1617 14.2194 33.1489 13.2932C31.1361 12.367 28.9446 11.8937 26.7289 11.9067ZM13.3968 30.1787C13.8904 30.0848 14.391 30.0323 14.8933 30.0217C17.1864 30.0219 19.3857 30.9322 21.0084 32.5525C22.6311 34.1728 23.5444 36.3708 23.548 38.664C23.5463 39.2433 23.4808 39.8206 23.3528 40.3856C20.9168 39.7609 18.6996 38.4783 16.9437 36.6781C15.1877 34.8779 13.9607 32.6294 13.3968 30.1787ZM24.8699 40.683C25.0196 40.0172 25.0961 39.3371 25.0982 38.6547C25.0916 35.9507 24.0124 33.3598 22.0973 31.4507C20.1823 29.5417 17.588 28.4706 14.884 28.4725C14.2964 28.4848 13.7109 28.5459 13.1334 28.6553C13.0762 28.1523 13.0465 27.6465 13.0446 27.1402C13.0388 25.2754 13.4142 23.429 14.1478 21.7145C14.8814 20 15.9577 18.4535 17.3105 17.17C18.6634 15.8865 20.2644 14.8931 22.0151 14.2507C23.7658 13.6083 25.6294 13.3306 27.4913 13.4345C29.3533 13.5384 31.1744 14.0218 32.8428 14.8549C34.5111 15.6881 35.9916 16.8535 37.1933 18.2796C38.395 19.7056 39.2925 21.3623 39.8308 23.1478C40.369 24.9332 40.5367 26.8099 40.3234 28.6625C39.7202 28.543 39.1072 28.4794 38.4923 28.4725C35.7911 28.4769 33.2019 29.5526 31.2929 31.4636C29.3838 33.3746 28.3107 35.9648 28.3091 38.666C28.3176 39.3469 28.3951 40.0251 28.5404 40.6903C27.9403 40.7753 27.3351 40.8202 26.7289 40.8245C26.1068 40.8198 25.4857 40.7725 24.8699 40.683ZM30.0596 40.398C29.934 39.829 29.8669 39.2487 29.8593 38.666C29.8604 36.3755 30.7701 34.179 32.3887 32.5584C34.0074 30.9378 36.2028 30.0255 38.4933 30.0217C39.0196 30.0275 39.5441 30.0828 40.06 30.1869C39.4932 32.6441 38.2596 34.8973 36.4951 36.6988C34.7306 38.5003 32.5045 39.7803 30.0596 40.398Z" fill="#123984"/>
</g>
<defs>
<filter id="filter0_f_2279_3070" x="2.38474" y="2.79596" width="26.5572" height="26.5572" filterUnits="userSpaceOnUse" color-interpolation-filters="sRGB">
<feFlood flood-opacity="0" result="BackgroundImageFix"/>
<feBlend mode="normal" in="SourceGraphic" in2="BackgroundImageFix" result="shape"/>
<feGaussianBlur stdDeviation="2.76637" result="effect1_foregroundBlur_2279_3070"/>
</filter>
<clipPath id="clip0_2279_3070">
<rect width="30.9834" height="30.9834" fill="white" transform="translate(11.2373 11.6484)"/>
</clipPath>
</defs>
</svg>
