<svg width="54" height="54" viewBox="0 0 54 54" fill="none" xmlns="http://www.w3.org/2000/svg">
<rect x="0.291992" y="0.722084" width="53.1143" height="53.1143" rx="9.95894" fill="#B9E0FF"/>
<g filter="url(#filter0_f_2279_3116)">
<rect x="8.03809" y="8.46796" width="15.4917" height="15.4917" rx="7.74584" fill="#52B2FF"/>
</g>
<g clip-path="url(#clip0_2279_3116)">
<path d="M37.2444 25.2016V41.0916H13.0386" stroke="#123984" stroke-width="1.10655" stroke-linecap="round" stroke-linejoin="round"/>
<path d="M36.0919 24.1334V16.886H30.3286V19.2351" stroke="#123984" stroke-width="1.10655" stroke-miterlimit="10" stroke-linecap="round" stroke-linejoin="round"/>
<path d="M16.5547 23.6463L26.2942 15.7703L39.4918 27.1045" stroke="#123984" stroke-width="1.10655" stroke-linecap="round" stroke-linejoin="round"/>
<path d="M21.6206 27.1318V31.9107" stroke="#123984" stroke-width="1.10655" stroke-miterlimit="10" stroke-linecap="round" stroke-linejoin="round"/>
<path d="M21.6382 36.8256H26.3076" stroke="#123984" stroke-width="1.10655" stroke-miterlimit="10" stroke-linecap="round" stroke-linejoin="round"/>
<path d="M17.8274 38.724C18.8415 38.724 19.6636 37.8741 19.6636 36.8256C19.6636 35.7771 18.8415 34.9272 17.8274 34.9272C16.8133 34.9272 15.9912 35.7771 15.9912 36.8256C15.9912 37.8741 16.8133 38.724 17.8274 38.724Z" stroke="#123984" stroke-width="1.10655" stroke-linecap="round" stroke-linejoin="round"/>
<path d="M30.072 38.724C31.0861 38.724 31.9082 37.8741 31.9082 36.8256C31.9082 35.7771 31.0861 34.9272 30.072 34.9272C29.0579 34.9272 28.2358 35.7771 28.2358 36.8256C28.2358 37.8741 29.0579 38.724 30.072 38.724Z" stroke="#123984" stroke-width="1.10655" stroke-linecap="round" stroke-linejoin="round"/>
<path d="M33.8105 36.8251H34.6276C34.5468 31.9539 30.7766 32.0155 29.3868 31.911C29.1624 31.8942 29.1073 31.7459 29.0512 31.5213C28.7569 30.3437 27.5346 27.0941 23.141 27.1174C23.0284 27.1179 22.0211 27.1174 21.9117 27.1207C16.6621 27.2805 15.9547 30.4789 15.8649 31.5745C15.8474 31.789 15.6888 31.9418 15.4876 32.0001C13.1665 32.6741 13.2613 36.825 13.2613 36.825H13.9207" stroke="#123984" stroke-width="1.10655" stroke-miterlimit="10" stroke-linecap="round" stroke-linejoin="round"/>
<path d="M15.6641 31.9107H29.3876" stroke="#123984" stroke-width="1.10655" stroke-miterlimit="10" stroke-linecap="round" stroke-linejoin="round"/>
</g>
<defs>
<filter id="filter0_f_2279_3116" x="2.50534" y="2.93521" width="26.5572" height="26.5572" filterUnits="userSpaceOnUse" color-interpolation-filters="sRGB">
<feFlood flood-opacity="0" result="BackgroundImageFix"/>
<feBlend mode="normal" in="SourceGraphic" in2="BackgroundImageFix" result="shape"/>
<feGaussianBlur stdDeviation="2.76637" result="effect1_foregroundBlur_2279_3116"/>
</filter>
<clipPath id="clip0_2279_3116">
<rect width="27.6637" height="27.6637" fill="white" transform="translate(12.4639 14.0007)"/>
</clipPath>
</defs>
</svg>
