<svg width="54" height="54" viewBox="0 0 54 54" fill="none" xmlns="http://www.w3.org/2000/svg">
<circle cx="26.6182" cy="26.6182" r="26.6182" fill="white"/>
<g clip-path="url(#clip0_2279_3010)">
<path fill-rule="evenodd" clip-rule="evenodd" d="M19.6533 16.7431C21.229 15.972 23.8141 15.0602 26.6432 15.0602C29.4132 15.0602 31.9303 15.9341 33.4977 16.695L33.5863 16.738C34.0589 16.9717 34.4403 17.1926 34.7087 17.3718L32.3367 20.8391C37.8049 26.4293 42.0287 38.174 26.6432 38.174C11.2577 38.174 15.3678 26.6425 20.8835 20.8391L18.527 17.3718C18.7087 17.253 18.9392 17.1149 19.2141 16.9685C19.3502 16.8953 19.4966 16.8198 19.6533 16.7431ZM30.8124 20.7935L32.7111 18.0177C30.9453 18.1449 28.8443 18.5597 26.8217 19.1453C25.377 19.5626 23.7717 19.499 22.2852 19.2249C21.9106 19.1555 21.5386 19.0728 21.1699 18.977L22.4027 20.7922C25.045 21.7329 28.1695 21.7329 30.8124 20.7935ZM21.6611 21.8858C24.7528 23.0801 28.4687 23.0801 31.5604 21.8845C32.8506 23.2452 33.9302 24.7911 34.7633 26.471C35.6314 28.2419 36.104 30.0122 36.0269 31.5379C35.9524 33.0102 35.3733 34.2681 34.0505 35.203C32.6719 36.1771 30.3533 36.8898 26.6426 36.8898C22.928 36.8898 20.5984 36.1893 19.207 35.2261C17.8746 34.3034 17.2897 33.0622 17.2068 31.6098C17.1201 30.1008 17.5825 28.3395 18.4474 26.5564C19.2725 24.8561 20.4238 23.2194 21.6611 21.8858ZM20.9227 17.5747C21.4364 17.7275 21.9732 17.8604 22.5177 17.9612C23.8982 18.2155 25.2826 18.2527 26.4641 17.9105C27.8408 17.5092 29.2412 17.1938 30.657 16.9659C29.4755 16.6102 28.0937 16.3444 26.6426 16.3444C24.4305 16.3444 22.3674 16.9615 20.9227 17.5747Z" fill="#123984"/>
<path d="M24.2583 30.4176L27.1881 34.1412H25.4973L22.361 30.1207V29.4689H23.5484C24.71 29.4689 25.5167 28.9785 25.6393 28.2105H22.3674V27.178H25.6329C25.5167 26.4164 24.8649 25.9453 23.9033 25.9453H22.3674V24.8289H28.9112V25.8679H26.2524V25.9776C26.659 26.2422 26.93 26.681 26.9881 27.178H28.9112V28.2105H27.001C26.8397 29.4302 25.7168 30.366 24.368 30.4111L24.2583 30.4176Z" fill="#123984"/>
</g>
<defs>
<clipPath id="clip0_2279_3010">
<rect width="30.821" height="30.821" fill="white" transform="translate(11.2075 11.2076)"/>
</clipPath>
</defs>
</svg>
