<svg width="54" height="54" viewBox="0 0 54 54" fill="none" xmlns="http://www.w3.org/2000/svg">
<circle cx="27.1523" cy="26.6181" r="26.6182" fill="white"/>
<path d="M34.3167 23.9242C35.0388 23.202 35.0388 22.0412 35.0388 19.717C35.0388 17.3928 35.0388 16.232 34.3167 15.5099M34.3167 23.9242C33.5946 24.6463 32.4337 24.6463 30.1096 24.6463H25.1803C22.8561 24.6463 21.6953 24.6463 20.9731 23.9242M34.3167 15.5099C33.5946 14.7877 32.4337 14.7877 30.1096 14.7877H25.1803C22.8561 14.7877 21.6953 14.7877 20.9731 15.5099M20.9731 15.5099C20.251 16.232 20.251 17.3928 20.251 19.717C20.251 22.0412 20.251 23.202 20.9731 23.9242M28.8772 19.717C28.8772 20.0438 28.7474 20.3573 28.5163 20.5884C28.2852 20.8195 27.9717 20.9493 27.6449 20.9493C27.3181 20.9493 27.0046 20.8195 26.7735 20.5884C26.5424 20.3573 26.4126 20.0438 26.4126 19.717C26.4126 19.3902 26.5424 19.0767 26.7735 18.8456C27.0046 18.6145 27.3181 18.4847 27.6449 18.4847C27.9717 18.4847 28.2852 18.6145 28.5163 18.8456C28.7474 19.0767 28.8772 19.3902 28.8772 19.717Z" stroke="#123984" stroke-width="1.47879"/>
<path d="M35.0387 18.4847C34.0582 18.4847 33.1179 18.0952 32.4246 17.4019C31.7313 16.7086 31.3418 15.7682 31.3418 14.7877M35.0387 20.9493C34.0582 20.9493 33.1179 21.3388 32.4246 22.0321C31.7313 22.7255 31.3418 23.6658 31.3418 24.6463M20.2509 18.4847C21.2314 18.4847 22.1717 18.0952 22.865 17.4019C23.5583 16.7086 23.9478 15.7682 23.9478 14.7877M20.2509 20.9493C21.2314 20.9493 22.1717 21.3388 22.865 22.0321C23.5583 22.7255 23.9478 23.6658 23.9478 24.6463M19.0186 36.2153H21.8036C23.0482 36.2153 24.3089 36.346 25.5203 36.5949C27.683 37.0392 29.9083 37.0885 32.0886 36.7403C33.1582 36.5678 34.2082 36.3028 35.1595 35.8444C36.0172 35.4291 37.0684 34.8462 37.7745 34.1919C38.4794 33.5387 39.2138 32.4703 39.7339 31.6348C40.1824 30.9176 39.9656 30.0389 39.2582 29.5053C38.8607 29.2162 38.3818 29.0605 37.8903 29.0605C37.3988 29.0605 36.9199 29.2162 36.5225 29.5053L34.2956 31.1875C33.433 31.8406 32.4903 32.4407 31.3677 32.6194C31.2321 32.6404 31.0904 32.6601 30.9425 32.6773M30.9425 32.6773C30.8973 32.6826 30.8522 32.6875 30.8069 32.6921M30.9425 32.6773C31.1397 32.624 31.3206 32.5223 31.4687 32.3816C31.6544 32.2209 31.806 32.0247 31.9147 31.8045C32.0233 31.5843 32.0867 31.3446 32.1012 31.0995C32.1157 30.8543 32.0809 30.6088 31.9989 30.3773C31.917 30.1459 31.7895 29.9332 31.624 29.7518C31.4634 29.5735 31.2764 29.421 31.0694 29.2995C27.6226 27.2428 22.2583 28.8091 19.0186 31.1074M30.9425 32.6773C30.898 32.687 30.8525 32.692 30.8069 32.6921M30.8069 32.6921C30.0638 32.7668 29.315 32.7685 28.5715 32.6971" stroke="#123984" stroke-width="1.47879" stroke-linecap="round"/>
<path d="M19.0187 30.1917C19.0187 29.1709 18.1911 28.3433 17.1703 28.3433C16.1494 28.3433 15.3218 29.1709 15.3218 30.1917V36.3534C15.3218 37.3742 16.1494 38.2018 17.1703 38.2018C18.1911 38.2018 19.0187 37.3742 19.0187 36.3534V30.1917Z" stroke="#123984" stroke-width="1.47879"/>
</svg>
