<svg width="36" height="36" viewBox="0 0 36 36" fill="none" xmlns="http://www.w3.org/2000/svg">
<rect width="36" height="36" rx="6" fill="#EEF7FF"/>
<path fill-rule="evenodd" clip-rule="evenodd" d="M13.8021 25.157C13.8345 25.1569 13.8666 25.1633 13.8966 25.1756C13.9266 25.188 13.9538 25.2062 13.9768 25.2291C13.9997 25.252 14.0179 25.2792 14.0303 25.3091C14.0428 25.3391 14.0492 25.3712 14.0492 25.4036V25.8874L15.1906 24.7684L14.0492 23.6494V24.14C14.0492 24.1724 14.0428 24.2045 14.0303 24.2345C14.0179 24.2644 13.9997 24.2916 13.9768 24.3145C13.9538 24.3374 13.9266 24.3556 13.8966 24.3679C13.8666 24.3803 13.8345 24.3867 13.8021 24.3866H9.05025V25.157H13.8021ZM10.7874 23.1481V22.2128C10.7882 21.8498 10.9328 21.5018 11.1894 21.2451C11.4461 20.9883 11.794 20.8437 12.157 20.8427H17.3702C17.7333 20.8435 18.0814 20.9882 18.3381 21.2449C18.5949 21.5017 18.7395 21.8497 18.7403 22.2128V27.4952C18.7395 27.8583 18.5949 28.2063 18.3381 28.4631C18.0814 28.7199 17.7333 28.8645 17.3702 28.8653H12.1593C11.7962 28.8644 11.4483 28.7197 11.1917 28.4629C10.935 28.2062 10.7905 27.8582 10.7896 27.4952V26.395C10.7896 26.3626 10.7959 26.3305 10.8083 26.3005C10.8206 26.2706 10.8388 26.2433 10.8617 26.2204C10.8846 26.1974 10.9118 26.1792 10.9418 26.1668C10.9717 26.1544 11.0038 26.148 11.0362 26.148H12.2087C12.2742 26.148 12.3371 26.174 12.3834 26.2203C12.4297 26.2667 12.4558 26.3295 12.4558 26.395C12.4558 26.6475 12.4239 26.8483 12.6094 27.0343C12.7073 27.1326 12.8403 27.1881 12.9791 27.1884H16.5531C16.6917 27.1877 16.8244 27.1323 16.9224 27.0343C17.0204 26.9363 17.0757 26.8036 17.0764 26.665V23.043C17.0757 22.9044 17.0203 22.7718 16.9223 22.6739C16.8243 22.5759 16.6916 22.5207 16.5531 22.5201H12.9769C12.8383 22.5206 12.7055 22.5758 12.6075 22.6737C12.5095 22.7717 12.4541 22.9044 12.4535 23.043V23.1481C12.4535 23.2136 12.4275 23.2765 12.3812 23.3228C12.3348 23.3691 12.272 23.3952 12.2065 23.3952H11.034C11.0016 23.3952 10.9695 23.3888 10.9395 23.3763C10.9096 23.3639 10.8824 23.3457 10.8594 23.3228C10.8365 23.2998 10.8184 23.2726 10.806 23.2426C10.7937 23.2126 10.7873 23.1805 10.7874 23.1481ZM11.2815 26.6421H11.9603V26.665C11.9609 26.9346 12.0682 27.1929 12.2588 27.3835C12.4494 27.5741 12.7078 27.6815 12.9773 27.6821H16.5513C16.8208 27.6813 17.0791 27.574 17.2697 27.3834C17.4602 27.1928 17.5676 26.9345 17.5683 26.665V23.043C17.5676 22.7735 17.4602 22.5153 17.2696 22.3248C17.079 22.1343 16.8208 22.027 16.5513 22.0264H12.9769C12.7317 22.0269 12.4949 22.1157 12.31 22.2766C12.125 22.4375 12.0042 22.6596 11.9697 22.9024H11.2811V22.2128C11.2819 21.9807 11.3744 21.7583 11.5385 21.5942C11.7026 21.43 11.9249 21.3373 12.157 21.3364H17.3702C17.6024 21.3372 17.8249 21.4298 17.989 21.594C18.1532 21.7582 18.2458 21.9806 18.2467 22.2128V27.4952C18.2458 27.7274 18.1532 27.9498 17.989 28.114C17.8249 28.2782 17.6024 28.3708 17.3702 28.3716H12.1593C11.9272 28.3707 11.7049 28.278 11.5408 28.1138C11.3767 27.9497 11.2841 27.7273 11.2833 27.4952V26.6417L11.2815 26.6421ZM21.9451 17.6191C22.0082 17.3971 22.1418 17.2016 22.3257 17.0623C22.5097 16.9229 22.734 16.8471 22.9648 16.8465H24.7442C24.917 16.8451 25.0875 16.8862 25.2407 16.9661C25.3939 17.0461 25.5251 17.1625 25.6228 17.3051C26.0887 16.775 25.665 16.0504 25.2208 15.6825C24.1647 14.8079 22.3152 14.7585 21.0084 14.7482C20.11 14.741 19.2817 14.7347 18.6518 14.5258C17.9421 14.2904 17.9623 13.5595 18.164 12.9504C18.3603 12.3588 18.7561 11.7559 18.9605 11.5578C19.4155 11.114 20.4339 11.0381 21.0606 11.1912C21.6701 11.3408 22.295 11.5892 22.8781 11.8372V11.5493C22.8782 11.1871 23.0221 10.8398 23.2782 10.5838C23.5343 10.3277 23.8816 10.1838 24.2437 10.1836H24.4319C23.6907 9.71196 23.0218 9.27038 22.1409 8.89214C20.5664 8.21427 18.6532 8.98198 16.6605 9.7771C15.5185 10.2344 14.3474 10.7043 13.1763 10.9298C12.6867 11.0241 9.71374 10.5318 9.20298 10.4392C8.71782 12.1058 8.33599 14.8573 8.28253 16.5486C9.59961 16.6241 10.9079 16.811 12.1934 17.1074C14.1174 17.5468 15.5738 18.1173 16.1915 18.3981C16.5742 18.5724 17.0059 18.6456 17.4084 18.6622C18.0095 18.6869 18.5315 18.5885 18.7336 18.5068C20.3387 17.8576 21.1217 17.6604 21.946 17.6191H21.9451ZM25.214 17.5791C24.7473 17.7539 22.8188 17.6151 22.4819 17.611C22.5327 17.5286 22.6037 17.4606 22.6882 17.4134C22.7728 17.3662 22.868 17.3414 22.9648 17.3415H24.7442C24.8359 17.3394 24.9268 17.3602 25.0086 17.4019C25.0903 17.4436 25.1605 17.505 25.2127 17.5805L25.214 17.5791ZM19.0085 12.3102C19.0924 12.1664 19.1919 12.0322 19.305 11.91C19.4366 11.7815 19.6882 11.6899 19.9788 11.6405C20.3001 11.587 20.6286 11.5958 20.9465 11.6665C21.5947 11.8255 22.2618 12.1027 22.8781 12.3686V13.3641C21.6001 13.1772 20.1864 12.507 19.0072 12.308L19.0085 12.3102ZM22.8794 13.8645V14.3322C22.255 14.2661 21.6185 14.2612 21.0134 14.2563C20.1549 14.2495 19.3634 14.2432 18.8077 14.0591C18.3019 13.8915 18.6146 13.1004 18.7628 12.7716C19.9088 12.9167 21.481 13.6781 22.8785 13.8645H22.8794ZM23.4535 14.4121V11.5484C23.4551 11.3388 23.539 11.1382 23.6872 10.99C23.8354 10.8419 24.0359 10.7579 24.2455 10.7564H27.8483C28.0579 10.7579 28.2585 10.8418 28.4067 10.99C28.555 11.1382 28.639 11.3388 28.6407 11.5484V15.8447C28.6391 16.0543 28.5552 16.2548 28.407 16.403C28.2588 16.5512 28.0583 16.6351 27.8487 16.6367H26.3164C26.2755 16.1461 25.9894 15.6789 25.5357 15.3029C24.936 14.8088 24.2136 14.5483 23.4526 14.413L23.4535 14.4121ZM26.2432 17.2099H27.1012V18.8298H26.7661C26.69 18.8298 26.6171 18.8599 26.5633 18.9137C26.5094 18.9674 26.4792 19.0403 26.479 19.1164V20.1666C26.479 20.2428 26.5093 20.3158 26.5631 20.3696C26.6169 20.4234 26.69 20.4537 26.7661 20.4537H27.1012V20.9348H26.7656C26.6895 20.9348 26.6165 20.965 26.5627 21.0189C26.5088 21.0727 26.4786 21.1457 26.4786 21.2218V22.6881C26.4786 22.7641 26.5088 22.837 26.5625 22.8908C26.6163 22.9445 26.6892 22.9747 26.7652 22.9747H27.1003V23.3067H26.7656C26.6896 23.3068 26.6167 23.3371 26.5629 23.3909C26.5092 23.4447 26.479 23.5177 26.479 23.5937V24.5928C26.479 24.6688 26.5092 24.7418 26.5629 24.7956C26.6167 24.8494 26.6896 24.8797 26.7656 24.8798H27.1012V26.395L26.0433 27.0037L24.9935 26.4431V26.139H25.3281C25.4042 26.1389 25.4771 26.1086 25.5308 26.0548C25.5846 26.0009 25.6147 25.928 25.6147 25.8519V24.387C25.6147 24.3109 25.5845 24.2379 25.5307 24.1841C25.4768 24.1302 25.4038 24.1 25.3277 24.1H24.9926V23.7244H25.3277C25.4038 23.7244 25.4768 23.6942 25.5307 23.6404C25.5845 23.5865 25.6147 23.5135 25.6147 23.4374V22.5354C25.6147 22.4592 25.5845 22.3862 25.5307 22.3324C25.4768 22.2786 25.4038 22.2483 25.3277 22.2483H24.9926V21.5296H25.3344C25.4103 21.529 25.4828 21.4986 25.5364 21.445C25.5901 21.3913 25.6204 21.3188 25.621 21.243L25.6143 18.916C25.6143 18.8399 25.584 18.7669 25.5302 18.713C25.4764 18.6592 25.4034 18.629 25.3272 18.629H24.9921V18.1407C25.5622 18.0598 26.05 17.7399 26.2418 17.2121L26.2432 17.2099ZM24.4198 18.1586C23.9418 18.1528 23.5497 18.138 23.2069 18.1249C21.7344 18.0697 21.1805 18.0486 18.9164 18.9641C18.6734 19.062 18.0629 19.1819 17.3891 19.1541C16.93 19.1352 16.4341 19.0499 15.9889 18.8473C15.3874 18.5737 13.9674 18.0167 12.0865 17.5895C11.7312 17.5082 8.79734 17.0077 8.02243 17.0311C7.95848 17.0285 7.89805 17.0011 7.85393 16.9548C7.80982 16.9084 7.78551 16.8467 7.78614 16.7827C7.80771 15.0334 8.22413 12.0165 8.74478 10.2555C8.80497 10.052 8.95591 9.89345 9.16794 9.93298C9.74609 10.0417 10.866 10.2205 11.7757 10.3373C12.4212 10.4204 12.9526 10.472 13.0847 10.4473C14.2109 10.2308 15.3591 9.77081 16.4826 9.32114C18.5705 8.48245 20.5772 7.6797 22.339 8.43753C23.1809 8.80005 23.8367 9.21827 24.5348 9.66389C24.7958 9.83011 25.0626 10.0008 25.3636 10.1823H27.8483C28.2104 10.1824 28.5578 10.3263 28.8139 10.5824C29.0701 10.8384 29.2141 11.1857 29.2143 11.5479V15.8442C29.2143 16.7494 28.51 17.2099 27.6744 17.2103V19.1182C27.6745 19.156 27.667 19.1936 27.6526 19.2286C27.6381 19.2636 27.6169 19.2954 27.5901 19.3222C27.5633 19.349 27.5315 19.3702 27.4964 19.3847C27.4614 19.3992 27.4239 19.4066 27.386 19.4066H27.0509V19.8814H27.386C27.4621 19.8815 27.535 19.9118 27.5887 19.9656C27.6424 20.0194 27.6726 20.0924 27.6726 20.1684V21.2236C27.6726 21.2998 27.6424 21.3728 27.5885 21.4266C27.5347 21.4804 27.4617 21.5107 27.3856 21.5107H27.0531V22.4028H27.3883C27.4642 22.4031 27.537 22.4333 27.5908 22.487C27.6446 22.5407 27.6749 22.6135 27.6753 22.6894V23.6027C27.6733 23.6775 27.6422 23.7486 27.5886 23.8008C27.535 23.853 27.4631 23.8821 27.3883 23.8821H27.0531V24.3071H27.3883C27.4644 24.3071 27.5374 24.3373 27.5912 24.3912C27.6451 24.445 27.6753 24.518 27.6753 24.5941V26.5159C27.6768 26.5248 27.6761 26.5339 27.6734 26.5425C27.6706 26.5511 27.6659 26.5589 27.6596 26.5653C27.3667 26.7899 26.3919 27.3739 26.1772 27.4965C26.1406 27.5191 26.0987 27.5318 26.0558 27.5331C26.0128 27.5344 25.9702 27.5245 25.9323 27.5042C25.7225 27.3923 24.9822 26.9974 24.5964 26.7594C24.53 26.7164 24.4743 26.6589 24.4333 26.5914C24.4242 26.5722 24.4197 26.5511 24.4203 26.5298V25.856C24.422 25.7804 24.4528 25.7084 24.5062 25.6549C24.5597 25.6014 24.6317 25.5706 24.7073 25.5689H25.0424V24.6736C24.9067 24.6802 24.7707 24.6772 24.6354 24.6647C24.5141 24.6485 24.4216 24.5038 24.4203 24.387V23.4365C24.4203 23.3601 24.4506 23.2869 24.5046 23.2329C24.5586 23.1789 24.6318 23.1485 24.7082 23.1485H25.0433V22.822C24.9078 22.8285 24.7719 22.8255 24.6368 22.813C24.5876 22.7991 24.5425 22.7733 24.5056 22.738C24.4789 22.7115 24.4576 22.6799 24.4432 22.6451C24.4288 22.6103 24.4215 22.573 24.4216 22.5354V21.2443C24.4233 21.1687 24.4541 21.0967 24.5076 21.0432C24.561 20.9898 24.6331 20.959 24.7087 20.9573H25.0496L25.0447 19.2053C24.9109 19.2109 24.777 19.2083 24.6435 19.1977C24.5137 19.1465 24.4216 19.0759 24.4216 18.9183V18.1586H24.4198ZM26.0469 11.2429C26.5033 11.2429 26.9215 11.3359 27.2283 11.4868C28.0279 11.879 28.0279 12.6463 27.2283 13.0389C26.5662 13.3637 25.5267 13.3641 24.865 13.0389C24.0654 12.6467 24.0654 11.8794 24.865 11.4868C25.1723 11.3363 25.5905 11.2429 26.0469 11.2429ZM26.9763 12.0021C27.3429 12.1818 27.3429 12.3435 26.9763 12.5236C26.4723 12.7707 25.6206 12.7711 25.117 12.5236C24.7504 12.3439 24.7504 12.1822 25.117 12.0021C25.621 11.755 26.4727 11.7546 26.9763 12.0021ZM13.5555 25.6507H8.80542C8.77105 25.6509 8.73702 25.6438 8.70555 25.63C8.67407 25.6162 8.64584 25.5959 8.62268 25.5705C8.59952 25.5451 8.58195 25.5151 8.5711 25.4825C8.56025 25.4499 8.55637 25.4154 8.5597 25.3812V24.1386C8.5597 24.1063 8.56607 24.0743 8.57844 24.0444C8.59081 24.0145 8.60894 23.9874 8.6318 23.9646C8.65466 23.9417 8.6818 23.9236 8.71167 23.9112C8.74153 23.8988 8.77354 23.8924 8.80587 23.8924H13.5573V23.0627C13.5571 23.0125 13.5724 22.9635 13.6009 22.9221C13.6294 22.8808 13.6698 22.8491 13.7168 22.8314C13.7638 22.8137 13.8151 22.8107 13.8638 22.8229C13.9125 22.8351 13.9563 22.8619 13.9894 22.8997L15.7149 24.5932C15.7379 24.6159 15.7563 24.6429 15.769 24.6726C15.7816 24.7024 15.7882 24.7344 15.7885 24.7667C15.7887 24.7991 15.7826 24.8312 15.7704 24.8611C15.7583 24.8911 15.7403 24.9184 15.7175 24.9414C15.1403 25.5137 14.5554 26.0806 13.975 26.6484C13.9405 26.6824 13.8966 26.7054 13.849 26.7145C13.8014 26.7237 13.7522 26.7186 13.7075 26.6999C13.6628 26.6812 13.6246 26.6497 13.5977 26.6094C13.5708 26.569 13.5564 26.5217 13.5564 26.4732L13.5555 25.6507Z" fill="#123984"/>
</svg>
