<svg width="36" height="36" viewBox="0 0 36 36" fill="none" xmlns="http://www.w3.org/2000/svg">
<rect width="36" height="36" rx="6" fill="#EEF7FF"/>
<path d="M26.5309 9.23669H9.46915C8.20708 9.23816 7.18482 10.2604 7.18335 11.5225V24.4776C7.18482 25.7396 8.20708 26.7619 9.46915 26.7634H26.5309C27.793 26.7619 28.8152 25.7396 28.8167 24.4776V11.5225C28.8152 10.2604 27.793 9.23816 26.5309 9.23669ZM27.7167 24.4776C27.716 25.1324 27.1858 25.6626 26.5309 25.6634H9.46915C8.81428 25.6626 8.28408 25.1324 8.28335 24.4776V11.5225C8.28408 10.8676 8.81428 10.3374 9.46915 10.3367H26.5309C27.1858 10.3374 27.716 10.8676 27.7167 11.5225V24.4776Z" fill="#123984"/>
<path d="M14.8466 18.9438C19.7402 18.7928 19.7402 11.689 14.8466 11.5386C9.95163 11.6912 9.9553 18.7898 14.8466 18.9438ZM14.8466 12.6394V12.6372C18.2794 12.7244 18.2786 17.7558 14.8466 17.8424C11.4139 17.7544 11.4161 12.7281 14.8466 12.6394Z" fill="#123984"/>
<path d="M18.0984 19.056C17.486 18.6967 16.9265 19.6112 17.5227 19.9932C18.7283 20.607 19.5555 23.0351 17.7354 23.3541C17.6928 23.3585 12.0777 23.3614 12.0777 23.3614C10.1072 23.2023 10.908 20.632 12.1635 19.9932C12.7619 19.6126 12.1972 18.6952 11.5878 19.056C9.33649 20.3049 8.91775 24.281 12.0799 24.4651H17.6107C20.7728 24.281 20.3548 20.302 18.0984 19.056Z" fill="#123984"/>
<path d="M21.6213 15.2787H23.6504C24.3691 15.2757 24.3698 14.1816 23.6504 14.1786H21.6213C20.9026 14.1816 20.9019 15.2757 21.6213 15.2787Z" fill="#123984"/>
<path d="M25.6803 17.45H21.6213C20.9034 17.453 20.9012 18.5471 21.6213 18.55H25.6803C26.3982 18.5471 26.4004 17.453 25.6803 17.45Z" fill="#123984"/>
<path d="M25.6803 20.7214H21.6213C20.9034 20.7244 20.9012 21.8185 21.6213 21.8214H25.6803C26.3982 21.8185 26.4004 20.7244 25.6803 20.7214Z" fill="#123984"/>
</svg>
