<svg width="25" height="25" viewBox="0 0 25 25" fill="none" xmlns="http://www.w3.org/2000/svg">
<path d="M20.7917 12.3388L21.898 10.4268C22.031 10.1968 22.0671 9.92338 21.9986 9.66669C21.93 9.41 21.7622 9.19106 21.5323 9.05801L19.6183 7.95173V5.74718C19.6183 5.48142 19.5127 5.22654 19.3248 5.03862C19.1369 4.85069 18.882 4.74512 18.6163 4.74512H16.4127L15.3074 2.83218C15.1739 2.60262 14.9554 2.43486 14.6992 2.36521C14.5721 2.33076 14.4394 2.32187 14.3089 2.33908C14.1783 2.35628 14.0525 2.39922 13.9386 2.46542L12.0247 3.5717L10.1107 2.46442C9.88057 2.33154 9.60706 2.29553 9.35036 2.36431C9.09366 2.43309 8.87479 2.60103 8.7419 2.83117L7.63562 4.74512H5.43208C5.16632 4.74512 4.91144 4.85069 4.72352 5.03862C4.53559 5.22654 4.43002 5.48142 4.43002 5.74718V7.95073L2.51607 9.05701C2.40187 9.1227 2.30177 9.21031 2.22153 9.3148C2.14129 9.41929 2.08248 9.53861 2.0485 9.6659C2.01451 9.79319 2.00601 9.92594 2.02348 10.0565C2.04096 10.1871 2.08406 10.313 2.15032 10.4268L3.2566 12.3388L2.15032 14.2507C2.01803 14.481 1.98214 14.7542 2.05047 15.0108C2.1188 15.2674 2.2858 15.4866 2.51507 15.6205L4.42901 16.7268V18.9304C4.42901 19.1961 4.53459 19.451 4.72251 19.6389C4.91044 19.8268 5.16532 19.9324 5.43108 19.9324H7.63562L8.7419 21.8464C8.83062 21.998 8.95728 22.124 9.10944 22.2118C9.26159 22.2997 9.434 22.3464 9.60969 22.3474C9.78405 22.3474 9.95741 22.3013 10.1117 22.2121L12.0237 21.1058L13.9376 22.2121C14.1677 22.3448 14.441 22.3808 14.6976 22.3123C14.9543 22.2437 15.1732 22.0761 15.3064 21.8464L16.4117 19.9324H18.6153C18.881 19.9324 19.1359 19.8268 19.3238 19.6389C19.5117 19.451 19.6173 19.1961 19.6173 18.9304V16.7268L21.5313 15.6205C21.6453 15.5546 21.7452 15.4669 21.8253 15.3624C21.9054 15.2579 21.9641 15.1386 21.998 15.0114C22.032 14.8842 22.0406 14.7515 22.0232 14.621C22.0059 14.4905 21.963 14.3647 21.897 14.2507L20.7917 12.3388ZM9.5185 7.31842C9.91728 7.31856 10.2997 7.4771 10.5816 7.75917C10.8634 8.04124 11.0217 8.42374 11.0216 8.82252C11.0215 9.2213 10.8629 9.6037 10.5809 9.88558C10.2988 10.1675 9.91628 10.3258 9.5175 10.3256C9.11872 10.3255 8.73633 10.1669 8.45444 9.88487C8.17256 9.6028 8.01427 9.2203 8.0144 8.82152C8.01454 8.42274 8.17308 8.04035 8.45515 7.75846C8.73723 7.47658 9.11972 7.31829 9.5185 7.31842ZM9.81912 16.9382L8.21582 15.7368L14.2282 7.72025L15.8315 8.92173L9.81912 16.9382ZM14.5288 17.3391C14.3314 17.339 14.1359 17.3001 13.9535 17.2244C13.7711 17.1488 13.6053 17.038 13.4658 16.8983C13.3262 16.7587 13.2155 16.5929 13.14 16.4104C13.0645 16.228 13.0257 16.0324 13.0257 15.835C13.0258 15.6375 13.0648 15.442 13.1404 15.2596C13.216 15.0772 13.3268 14.9115 13.4665 14.7719C13.6061 14.6323 13.7719 14.5216 13.9544 14.4461C14.1368 14.3706 14.3324 14.3318 14.5298 14.3319C14.9286 14.332 15.311 14.4906 15.5929 14.7726C15.8748 15.0547 16.0331 15.4372 16.0329 15.836C16.0328 16.2348 15.8743 16.6171 15.5922 16.899C15.3101 17.1809 14.9276 17.3392 14.5288 17.3391Z" fill="#123984"/>
</svg>
