<svg width="33" height="33" viewBox="0 0 33 33" fill="none" xmlns="http://www.w3.org/2000/svg">
<circle cx="16.5" cy="16.5" r="16.5" fill="#949494" fill-opacity="0.2"/>
<path d="M16.0541 8.25C14.4285 8.25192 12.8699 8.89856 11.7204 10.0481C10.5709 11.1976 9.92428 12.7561 9.92237 14.3818C9.92087 15.7102 10.3548 17.0025 11.1576 18.0608C11.1576 18.0608 11.3249 18.281 11.3522 18.3128L16.0541 23.8581L20.7583 18.31C20.7828 18.2804 20.9506 18.0608 20.9506 18.0608L20.9512 18.0591C21.7535 17.0012 22.1872 15.7095 22.1859 14.3818C22.184 12.7561 21.5373 11.1976 20.3878 10.0481C19.2383 8.89856 17.6798 8.25192 16.0541 8.25ZM16.0541 16.6115C15.6131 16.6115 15.182 16.4807 14.8154 16.2357C14.4487 15.9907 14.1629 15.6425 13.9941 15.235C13.8254 14.8276 13.7812 14.3793 13.8672 13.9468C13.9533 13.5142 14.1656 13.1169 14.4775 12.8051C14.7893 12.4933 15.1866 12.2809 15.6191 12.1949C16.0517 12.1088 16.5 12.153 16.9074 12.3218C17.3148 12.4905 17.6631 12.7763 17.9081 13.143C18.1531 13.5097 18.2839 13.9408 18.2839 14.3818C18.2831 14.9729 18.048 15.5396 17.63 15.9576C17.212 16.3756 16.6453 16.6107 16.0541 16.6115Z" fill="#252525"/>
</svg>
